Coordinates
version=1
nRows=11
nColumns=36
inDegrees=yes

Units are S.I. units (second, meters, Newtons, ...)
If the header above contains a line with 'inDegrees', this indicates whether rotational values are in degrees (yes) or radians (no).

endheader
time	pelvis_tilt	pelvis_list	pelvis_rotation	pelvis_tx	pelvis_ty	pelvis_tz	hip_flexion_r	hip_adduction_r	hip_rotation_r	knee_angle_r	knee_angle_r_beta	ankle_angle_r	subtalar_angle_r	mtp_angle_r	hip_flexion_l	hip_adduction_l	hip_rotation_l	knee_angle_l	knee_angle_l_beta	ankle_angle_l	subtalar_angle_l	mtp_angle_l	lumbar_extension	lumbar_bending	lumbar_rotation	arm_flex_r	arm_add_r	arm_rot_r	elbow_flex_r	pro_sup_r	arm_flex_l	arm_add_l	arm_rot_l	elbow_flex_l	pro_sup_l
     14.91666670	      7.05645012	     -5.23771895	     -1.40549674	      0.43857209	      1.02911677	      0.73876721	      9.73716545	      6.06320147	      2.14601805	     15.65408119	      0.27321526	      3.25010249	     -7.21223376	     -7.49999987	     -9.57112385	     -7.93572130	     -3.82072537	     36.96979784	      0.64524470	      8.81537032	     -5.94690800	     -7.49999987	    -17.36662360	      6.97790447	      4.44559627	      4.60666455	    -16.27696445	      1.28978546	     23.87741057	     88.19973030	     10.82790563	     -9.62622090	     17.61231081	     19.10108962	     88.71628452
     14.93333330	      7.20068038	     -5.69247980	     -0.99643731	      0.43526256	      1.02952178	      0.74185580	      8.63556976	      6.79630910	      1.91892978	     15.52588457	      0.27097780	      4.46496088	     -7.38170516	     -7.49999987	     -6.88160050	     -9.11405920	     -3.39406369	     42.44583061	      0.74081950	      5.99271914	     -6.67294168	     -7.49999987	    -17.94274326	      7.53432170	      4.80486039	      4.72598269	    -16.39117625	      1.30349212	     24.31907699	     88.10948743	     10.61062520	     -9.38480246	     17.62415418	     19.51380355	     88.58664166
     14.95000000	      6.87216737	     -6.01492393	     -0.66128523	      0.43256629	      1.03027177	      0.74545717	      8.00515570	      7.38883759	      1.55849874	     15.29491712	      0.26694666	      5.58011853	     -7.29373118	     -7.49999987	     -3.47101111	     -9.95770672	     -2.53478568	     47.87769181	      0.83562336	      2.76889072	     -7.96164745	     -7.49999987	    -17.88092393	      7.89311839	      5.04713402	      4.78468501	    -16.44005892	      1.38463730	     24.96676920	     88.45805623	     10.40144981	     -9.17075536	     17.69111492	     19.43882998	     88.89257145
     14.96666670	      6.79449697	     -6.27590473	     -0.38116043	      0.42988863	      1.03212992	      0.74926052	      6.97885226	      7.90702751	      1.20824379	     14.80327892	      0.25836596	      6.34900837	     -7.17141091	     -7.49999987	     -0.41368623	    -10.56255510	     -1.65257764	     52.72226747	      0.92017716	      0.17810876	     -9.12187543	     -7.49999987	    -18.16486365	      8.16564508	      5.43208730	      4.90444762	    -16.53609112	      1.38980580	     25.64011506	     88.74779819	     10.30774957	     -9.00801290	     17.80026338	     19.50754659	     89.21297977
     14.98333330	      7.04614149	     -6.42425621	     -0.14928751	      0.42693560	      1.03366171	      0.75230821	      5.54027318	      8.30886918	      1.04181780	     14.18136373	      0.24751149	      6.81934168	     -7.09360775	     -7.49999987	      2.13266095	    -10.93501549	     -0.91821981	     56.80460901	      0.99142746	     -1.43477372	     -9.91629023	     -7.49999987	    -18.82857040	      8.26011139	      5.85332421	      5.37334972	    -16.62107506	      1.38007016	     26.03651629	     88.79122267	     10.42650250	     -8.85606088	     17.85664790	     19.66428334	     89.28343327
     15.00000000	      6.84828942	     -6.35658032	      0.08986769	      0.42471961	      1.03291045	      0.75433011	      4.56319554	      8.42234799	      0.71203362	     13.52462118	      0.23604917	      7.27249848	     -6.55312192	     -7.49999987	      5.05743628	    -10.92768588	     -0.20350947	     60.11567079	      1.04921639	     -2.34503726	    -10.85812165	     -7.49999987	    -18.92640815	      8.14073555	      6.21715564	      5.38879701	    -16.76434382	      1.64132969	     27.28885375	     88.22920062	     10.69237083	     -8.78373962	     18.59681516	     19.51649273	     89.32303875
     15.01666670	      6.90932622	     -6.18437733	      0.26868467	      0.42290325	      1.03193614	      0.75606221	      3.32678207	      8.41065659	      0.49697167	     12.88490416	      0.22488400	      7.74342071	     -5.90523820	     -7.49999987	      7.53398526	    -10.74978920	      0.22429954	     62.59235620	      1.09244270	     -2.25735809	    -11.33528690	     -7.49999987	    -19.34298739	      7.91309424	      6.45233904	      5.72173111	    -16.79926999	      1.64834465	     28.25472382	     87.19369896	     10.81946345	     -8.78583438	     18.86723516	     19.78078670	     88.64865764
     15.03333330	      6.95303040	     -5.87103748	      0.36885105	      0.42102489	      1.03174020	      0.75829581	      2.11181492	      8.26740449	      0.51772438	     12.17635942	      0.21251756	      7.98838822	     -5.59909816	     -7.49999987	      9.80666489	    -10.35696927	      0.48684087	     64.24480722	      1.12128341	     -1.63086987	    -11.59759435	     -7.49999987	    -19.76031450	      7.50333068	      6.80217752	      5.83021028	    -16.65603309	      0.12275845	     29.51957727	     90.03318094	     11.01832999	     -8.75596479	     18.13547729	     20.13918897	     91.90110101
     15.05000000	      7.08807272	     -5.52550963	      0.42353923	      0.41881061	      1.03297672	      0.76078197	      0.80547032	      8.08354600	      0.52323027	     11.40727720	      0.19909455	      8.11363850	     -5.30158793	     -7.49999987	     11.65273212	     -9.91485058	      0.61063335	     65.07631299	      1.13579593	     -0.86863182	    -11.80929814	     -7.49999987	    -20.22223625	      7.05168907	      6.94884935	      6.26888641	    -16.64749191	      0.31728710	     30.32020849	     88.25034334	     11.05923861	     -8.77199810	     17.80655195	     20.62341140	     90.19415142
     15.06666670	      7.05361126	     -5.15651699	      0.42061168	      0.41726171	      1.03470995	      0.76266488	     -0.26196487	      7.84981082	      0.47863984	     10.72971370	      0.18726883	      8.39340772	     -4.71517905	     -7.49999987	     13.22801308	     -9.50664219	      0.52713807	     64.96045343	      1.13377380	      0.21270180	    -11.60494120	     -7.49999987	    -20.25943473	      6.59776305	      6.88844474	      7.21222099	    -16.74639158	      1.85007973	     30.05400272	     88.18101431	     11.14205410	     -8.86663609	     18.69291471	     20.37863926	     90.25220374
     15.08333330	      7.41742762	     -4.75041776	      0.51445153	      0.41658451	      1.03670486	      0.76352408	     -1.76895896	      7.56366481	      0.44413734	     10.08697400	      0.17605091	      8.48483743	     -4.28492423	     -7.49999987	     13.87891224	     -9.09789770	      0.28728591	     63.72007496	      1.11212511	      1.31297486	    -11.48694941	     -7.49999987	    -20.86910643	      6.09953810	      6.93012065	      7.69020693	    -16.80609300	      2.03330141	     30.83244701	     86.79025827	     10.98254265	     -8.93327926	     18.44272331	     21.11068787	     88.84963551
